<svg xmlns="http://www.w3.org/2000/svg" viewBox="0 0 224.9 321.38"><defs><style>.cls-1{fill:#4a58a6;}</style></defs><g id="Layer_2" data-name="Layer 2"><g id="Layer_1-2" data-name="Layer 1"><path class="cls-1" d="M177.33,0H47.57A47.62,47.62,0,0,0,0,47.57V273.81a47.62,47.62,0,0,0,47.57,47.57H177.33a47.62,47.62,0,0,0,47.57-47.57V47.57A47.62,47.62,0,0,0,177.33,0ZM47.57,22H177.33A25.65,25.65,0,0,1,203,47.57V228.83H22V47.57A25.65,25.65,0,0,1,47.57,22ZM177.33,299.43H47.57A25.65,25.65,0,0,1,22,273.81v-23H203v23A25.65,25.65,0,0,1,177.33,299.43Z"/><path class="cls-1" d="M109.45,53.53a8.78,8.78,0,1,0-8.78-8.78A8.78,8.78,0,0,0,109.45,53.53Z"/><path class="cls-1" d="M109.45,264.43a8.78,8.78,0,1,0,8.78,8.78A8.78,8.78,0,0,0,109.45,264.43Z"/></g></g></svg>